<svg width="24" height="24" viewBox="0 0 24 24" fill="none" xmlns="http://www.w3.org/2000/svg">
<path d="M19.5 2L13.5 11.2867L6.5 22M12.8442 4.99992C7.73915 4.99992 4.38928 9.50476 3.26387 11.2867C3.12769 11.5024 3.05959 11.6102 3.02147 11.7765C2.99284 11.9014 2.99284 12.0984 3.02147 12.2233C3.05959 12.3896 3.12769 12.4975 3.26387 12.7131C4.38928 14.4951 7.73915 18.9999 12.8442 18.9999C17.9492 18.9999 21.299 14.4951 22.4244 12.7131C22.5606 12.4975 22.6287 12.3896 22.6668 12.2233C22.6955 12.0984 22.6955 11.9014 22.6668 11.7765C22.6287 11.6102 22.5606 11.5024 22.4244 11.2867C21.299 9.50476 17.9492 4.99992 12.8442 4.99992Z" stroke="#C8C7D2" stroke-width="2" stroke-linecap="round" stroke-linejoin="round"/>
</svg>
